<mxfile host="app.diagrams.net" modified="2024-04-25T16:04:13.751Z" agent="Mozilla/5.0 (Windows NT 10.0; Win64; x64) AppleWebKit/537.36 (KHTML, like Gecko) Chrome/121.0.0.0 Safari/537.36 OPR/107.0.0.0" etag="uie4IcO-AOhwILIEamr9" version="24.2.8" type="device">
  <diagram name="PÃ¡gina-1" id="YN7xPhfdk1YAsNQhyoeV">
    <mxGraphModel dx="1741" dy="2174" grid="1" gridSize="10" guides="1" tooltips="1" connect="1" arrows="1" fold="1" page="1" pageScale="1" pageWidth="827" pageHeight="1169" math="0" shadow="0">
      <root>
        <mxCell id="0" />
        <mxCell id="1" parent="0" />
        <mxCell id="D9AQjK48RsLsbsZc_3wW-85" value="12" style="ellipse;whiteSpace=wrap;html=1;aspect=fixed;" parent="1" vertex="1">
          <mxGeometry x="991.25" y="960" width="90" height="90" as="geometry" />
        </mxCell>
        <mxCell id="D9AQjK48RsLsbsZc_3wW-21" value="" style="ellipse;whiteSpace=wrap;html=1;aspect=fixed;" parent="1" vertex="1">
          <mxGeometry x="230" y="230" width="85" height="85" as="geometry" />
        </mxCell>
        <mxCell id="D9AQjK48RsLsbsZc_3wW-1" value="1" style="ellipse;whiteSpace=wrap;html=1;aspect=fixed;" parent="1" vertex="1">
          <mxGeometry x="360" y="80" width="80" height="80" as="geometry" />
        </mxCell>
        <mxCell id="D9AQjK48RsLsbsZc_3wW-2" value="" style="endArrow=classic;html=1;rounded=0;entryX=0.5;entryY=0;entryDx=0;entryDy=0;" parent="1" target="D9AQjK48RsLsbsZc_3wW-1" edge="1">
          <mxGeometry width="50" height="50" relative="1" as="geometry">
            <mxPoint x="400" y="-10" as="sourcePoint" />
            <mxPoint x="440" y="290" as="targetPoint" />
          </mxGeometry>
        </mxCell>
        <mxCell id="D9AQjK48RsLsbsZc_3wW-4" value="2" style="ellipse;whiteSpace=wrap;html=1;aspect=fixed;" parent="1" vertex="1">
          <mxGeometry x="232.5" y="232.5" width="80" height="80" as="geometry" />
        </mxCell>
        <mxCell id="D9AQjK48RsLsbsZc_3wW-5" value="" style="endArrow=classic;html=1;rounded=0;entryX=0.5;entryY=0;entryDx=0;entryDy=0;exitX=0;exitY=1;exitDx=0;exitDy=0;" parent="1" source="D9AQjK48RsLsbsZc_3wW-1" target="D9AQjK48RsLsbsZc_3wW-4" edge="1">
          <mxGeometry width="50" height="50" relative="1" as="geometry">
            <mxPoint x="280" y="130" as="sourcePoint" />
            <mxPoint x="320" y="430" as="targetPoint" />
          </mxGeometry>
        </mxCell>
        <mxCell id="D9AQjK48RsLsbsZc_3wW-6" value="Return" style="text;html=1;align=center;verticalAlign=middle;resizable=0;points=[];autosize=1;strokeColor=none;fillColor=none;" parent="1" vertex="1">
          <mxGeometry x="242.5" y="322.5" width="60" height="30" as="geometry" />
        </mxCell>
        <mxCell id="D9AQjK48RsLsbsZc_3wW-7" value="isEmpty() || data.compareTo(elem)&amp;gt;0&amp;nbsp;&lt;span style=&quot;color: rgba(0, 0, 0, 0); font-family: monospace; font-size: 0px; text-align: start;&quot;&gt;%3CmxGraphModel%3E%3Croot%3E%3CmxCell%20id%3D%220%22%2F%3E%3CmxCell%20id%3D%221%22%20parent%3D%220%22%2F%3E%3CmxCell%20id%3D%222%22%20value%3D%22data.compareTo(elem)%26amp%3Bgt%3B0%22%20style%3D%22text%3Bhtml%3D1%3Balign%3Dcenter%3BverticalAlign%3Dmiddle%3Bresizable%3D0%3Bpoints%3D%5B%5D%3Bautosize%3D1%3BstrokeColor%3Dnone%3BfillColor%3Dnone%3B%22%20vertex%3D%221%22%20parent%3D%221%22%3E%3CmxGeometry%20x%3D%22320%22%20y%3D%22280%22%20width%3D%22160%22%20height%3D%2230%22%20as%3D%22geometry%22%2F%3E%3C%2FmxCell%3E%3C%2Froot%3E%3C%2FmxGraphModel%3E&lt;/span&gt;&lt;span style=&quot;color: rgba(0, 0, 0, 0); font-family: monospace; font-size: 0px; text-align: start;&quot;&gt;%3CmxGraphModel%3E%3Croot%3E%3CmxCell%20id%3D%220%22%2F%3E%3CmxCell%20id%3D%221%22%20parent%3D%220%22%2F%3E%3CmxCell%20id%3D%222%22%20value%3D%22data.compareTo(elem)%26amp%3Bgt%3B0%22%20style%3D%22text%3Bhtml%3D1%3Balign%3Dcenter%3BverticalAlign%3Dmiddle%3Bresizable%3D0%3Bpoints%3D%5B%5D%3Bautosize%3D1%3BstrokeColor%3Dnone%3BfillColor%3Dnone%3B%22%20vertex%3D%221%22%20parent%3D%221%22%3E%3CmxGeometry%20x%3D%22320%22%20y%3D%22280%22%20width%3D%22160%22%20height%3D%2230%22%20as%3D%22geometry%22%2F%3E%3C%2FmxCell%3E%3C%2Froot%3E%3C%2FmxGraphModel%3E&lt;/span&gt;" style="text;html=1;align=center;verticalAlign=middle;resizable=0;points=[];autosize=1;strokeColor=none;fillColor=none;" parent="1" vertex="1">
          <mxGeometry x="120" y="160" width="220" height="30" as="geometry" />
        </mxCell>
        <mxCell id="D9AQjK48RsLsbsZc_3wW-8" value="3" style="ellipse;whiteSpace=wrap;html=1;aspect=fixed;" parent="1" vertex="1">
          <mxGeometry x="807.5" y="130" width="80" height="80" as="geometry" />
        </mxCell>
        <mxCell id="D9AQjK48RsLsbsZc_3wW-9" value="" style="endArrow=classic;html=1;rounded=0;entryX=0.031;entryY=0.375;entryDx=0;entryDy=0;exitX=1;exitY=0.5;exitDx=0;exitDy=0;entryPerimeter=0;" parent="1" source="D9AQjK48RsLsbsZc_3wW-1" target="D9AQjK48RsLsbsZc_3wW-8" edge="1">
          <mxGeometry width="50" height="50" relative="1" as="geometry">
            <mxPoint x="622" y="158" as="sourcePoint" />
            <mxPoint x="570" y="440" as="targetPoint" />
          </mxGeometry>
        </mxCell>
        <mxCell id="D9AQjK48RsLsbsZc_3wW-11" value="~(isEmpty() || data.compareTo(elem)&amp;gt;0)" style="text;html=1;align=center;verticalAlign=middle;resizable=0;points=[];autosize=1;strokeColor=none;fillColor=none;" parent="1" vertex="1">
          <mxGeometry x="480" y="160" width="240" height="30" as="geometry" />
        </mxCell>
        <mxCell id="D9AQjK48RsLsbsZc_3wW-17" value="5" style="ellipse;whiteSpace=wrap;html=1;aspect=fixed;" parent="1" vertex="1">
          <mxGeometry x="926.25" y="280" width="80" height="80" as="geometry" />
        </mxCell>
        <mxCell id="D9AQjK48RsLsbsZc_3wW-18" value="" style="endArrow=classic;html=1;rounded=0;exitX=1;exitY=1;exitDx=0;exitDy=0;entryX=0.5;entryY=0;entryDx=0;entryDy=0;" parent="1" target="D9AQjK48RsLsbsZc_3wW-17" edge="1">
          <mxGeometry width="50" height="50" relative="1" as="geometry">
            <mxPoint x="873" y="200" as="sourcePoint" />
            <mxPoint x="963.8561526100323" y="274.7789886707724" as="targetPoint" />
          </mxGeometry>
        </mxCell>
        <mxCell id="D9AQjK48RsLsbsZc_3wW-32" value="6" style="ellipse;whiteSpace=wrap;html=1;aspect=fixed;" parent="1" vertex="1">
          <mxGeometry x="807.5" y="424" width="80" height="80" as="geometry" />
        </mxCell>
        <mxCell id="D9AQjK48RsLsbsZc_3wW-33" value="" style="endArrow=classic;html=1;rounded=0;entryX=0.5;entryY=0;entryDx=0;entryDy=0;" parent="1" source="D9AQjK48RsLsbsZc_3wW-17" target="D9AQjK48RsLsbsZc_3wW-32" edge="1">
          <mxGeometry width="50" height="50" relative="1" as="geometry">
            <mxPoint x="942" y="350" as="sourcePoint" />
            <mxPoint x="887.5" y="634" as="targetPoint" />
          </mxGeometry>
        </mxCell>
        <mxCell id="D9AQjK48RsLsbsZc_3wW-34" value="data = children[0].data;&amp;nbsp;" style="text;html=1;align=center;verticalAlign=middle;resizable=0;points=[];autosize=1;strokeColor=none;fillColor=none;" parent="1" vertex="1">
          <mxGeometry x="668.75" y="453" width="150" height="30" as="geometry" />
        </mxCell>
        <mxCell id="D9AQjK48RsLsbsZc_3wW-35" value="7" style="ellipse;whiteSpace=wrap;html=1;aspect=fixed;" parent="1" vertex="1">
          <mxGeometry x="1057.5" y="434" width="80" height="80" as="geometry" />
        </mxCell>
        <mxCell id="D9AQjK48RsLsbsZc_3wW-36" value="" style="endArrow=classic;html=1;rounded=0;entryX=0.5;entryY=0;entryDx=0;entryDy=0;exitX=1;exitY=1;exitDx=0;exitDy=0;" parent="1" source="D9AQjK48RsLsbsZc_3wW-17" target="D9AQjK48RsLsbsZc_3wW-35" edge="1">
          <mxGeometry width="50" height="50" relative="1" as="geometry">
            <mxPoint x="995.5" y="352" as="sourcePoint" />
            <mxPoint x="1137.5" y="644" as="targetPoint" />
          </mxGeometry>
        </mxCell>
        <mxCell id="D9AQjK48RsLsbsZc_3wW-37" value="empty = data.compareTo(elem)==0;" style="text;html=1;align=center;verticalAlign=middle;resizable=0;points=[];autosize=1;strokeColor=none;fillColor=none;" parent="1" vertex="1">
          <mxGeometry x="560" y="360" width="210" height="30" as="geometry" />
        </mxCell>
        <mxCell id="D9AQjK48RsLsbsZc_3wW-40" value="children[0].delete(data);" style="text;html=1;align=center;verticalAlign=middle;resizable=0;points=[];autosize=1;strokeColor=none;fillColor=none;" parent="1" vertex="1">
          <mxGeometry x="657.5" y="474" width="150" height="30" as="geometry" />
        </mxCell>
        <mxCell id="D9AQjK48RsLsbsZc_3wW-41" value="data.compareTo(elem)==0" style="text;html=1;align=center;verticalAlign=middle;resizable=0;points=[];autosize=1;strokeColor=none;fillColor=none;" parent="1" vertex="1">
          <mxGeometry x="766.25" y="350.88" width="160" height="30" as="geometry" />
        </mxCell>
        <mxCell id="D9AQjK48RsLsbsZc_3wW-42" value="&lt;span style=&quot;color: rgb(0, 0, 0); font-family: Helvetica; font-size: 12px; font-style: normal; font-variant-ligatures: normal; font-variant-caps: normal; font-weight: 400; letter-spacing: normal; orphans: 2; text-align: center; text-indent: 0px; text-transform: none; widows: 2; word-spacing: 0px; -webkit-text-stroke-width: 0px; white-space: nowrap; background-color: rgb(251, 251, 251); text-decoration-thickness: initial; text-decoration-style: initial; text-decoration-color: initial; display: inline !important; float: none;&quot;&gt;data.compareTo(elem)!=0&lt;/span&gt;" style="text;whiteSpace=wrap;html=1;" parent="1" vertex="1">
          <mxGeometry x="1018.75" y="350.88" width="170" height="40" as="geometry" />
        </mxCell>
        <mxCell id="D9AQjK48RsLsbsZc_3wW-43" value="int position = proposePosition(elem);" style="text;html=1;align=center;verticalAlign=middle;resizable=0;points=[];autosize=1;strokeColor=none;fillColor=none;" parent="1" vertex="1">
          <mxGeometry x="1137.5" y="449" width="220" height="30" as="geometry" />
        </mxCell>
        <mxCell id="D9AQjK48RsLsbsZc_3wW-53" value="" style="ellipse;whiteSpace=wrap;html=1;aspect=fixed;" parent="1" vertex="1">
          <mxGeometry x="937.5" y="573.5" width="85" height="85" as="geometry" />
        </mxCell>
        <mxCell id="D9AQjK48RsLsbsZc_3wW-54" value="8" style="ellipse;whiteSpace=wrap;html=1;aspect=fixed;" parent="1" vertex="1">
          <mxGeometry x="940" y="576" width="80" height="80" as="geometry" />
        </mxCell>
        <mxCell id="D9AQjK48RsLsbsZc_3wW-55" value="" style="endArrow=classic;html=1;rounded=0;entryX=0.5;entryY=0;entryDx=0;entryDy=0;exitX=0;exitY=1;exitDx=0;exitDy=0;" parent="1" target="D9AQjK48RsLsbsZc_3wW-54" edge="1">
          <mxGeometry width="50" height="50" relative="1" as="geometry">
            <mxPoint x="1072" y="504" as="sourcePoint" />
            <mxPoint x="1020" y="786" as="targetPoint" />
          </mxGeometry>
        </mxCell>
        <mxCell id="D9AQjK48RsLsbsZc_3wW-56" value="Return" style="text;html=1;align=center;verticalAlign=middle;resizable=0;points=[];autosize=1;strokeColor=none;fillColor=none;" parent="1" vertex="1">
          <mxGeometry x="950" y="666" width="60" height="30" as="geometry" />
        </mxCell>
        <mxCell id="D9AQjK48RsLsbsZc_3wW-57" value="position&amp;lt;0" style="text;html=1;align=center;verticalAlign=middle;resizable=0;points=[];autosize=1;strokeColor=none;fillColor=none;" parent="1" vertex="1">
          <mxGeometry x="960" y="516" width="80" height="30" as="geometry" />
        </mxCell>
        <mxCell id="D9AQjK48RsLsbsZc_3wW-58" value="9" style="ellipse;whiteSpace=wrap;html=1;aspect=fixed;" parent="1" vertex="1">
          <mxGeometry x="1190" y="586" width="80" height="80" as="geometry" />
        </mxCell>
        <mxCell id="D9AQjK48RsLsbsZc_3wW-59" value="" style="endArrow=classic;html=1;rounded=0;entryX=0.5;entryY=0;entryDx=0;entryDy=0;exitX=1;exitY=1;exitDx=0;exitDy=0;" parent="1" source="D9AQjK48RsLsbsZc_3wW-35" target="D9AQjK48RsLsbsZc_3wW-58" edge="1">
          <mxGeometry width="50" height="50" relative="1" as="geometry">
            <mxPoint x="1128" y="504" as="sourcePoint" />
            <mxPoint x="1270" y="796" as="targetPoint" />
          </mxGeometry>
        </mxCell>
        <mxCell id="D9AQjK48RsLsbsZc_3wW-60" value="position&amp;gt;=0" style="text;html=1;align=center;verticalAlign=middle;resizable=0;points=[];autosize=1;strokeColor=none;fillColor=none;" parent="1" vertex="1">
          <mxGeometry x="1223.75" y="528" width="90" height="30" as="geometry" />
        </mxCell>
        <mxCell id="D9AQjK48RsLsbsZc_3wW-62" value="10" style="ellipse;whiteSpace=wrap;html=1;aspect=fixed;" parent="1" vertex="1">
          <mxGeometry x="1072.5" y="734" width="80" height="80" as="geometry" />
        </mxCell>
        <mxCell id="D9AQjK48RsLsbsZc_3wW-63" value="" style="endArrow=classic;html=1;rounded=0;entryX=1;entryY=0;entryDx=0;entryDy=0;" parent="1" source="D9AQjK48RsLsbsZc_3wW-58" target="D9AQjK48RsLsbsZc_3wW-62" edge="1">
          <mxGeometry width="50" height="50" relative="1" as="geometry">
            <mxPoint x="1200.75" y="656" as="sourcePoint" />
            <mxPoint x="1152.5" y="944" as="targetPoint" />
          </mxGeometry>
        </mxCell>
        <mxCell id="D9AQjK48RsLsbsZc_3wW-64" value="position--;" style="text;html=1;align=center;verticalAlign=middle;resizable=0;points=[];autosize=1;strokeColor=none;fillColor=none;" parent="1" vertex="1">
          <mxGeometry x="1028.75" y="814" width="80" height="30" as="geometry" />
        </mxCell>
        <mxCell id="D9AQjK48RsLsbsZc_3wW-66" value="" style="endArrow=classic;html=1;rounded=0;entryX=0;entryY=0;entryDx=0;entryDy=0;exitX=1;exitY=1;exitDx=0;exitDy=0;" parent="1" source="D9AQjK48RsLsbsZc_3wW-58" edge="1">
          <mxGeometry width="50" height="50" relative="1" as="geometry">
            <mxPoint x="1259.75" y="658" as="sourcePoint" />
            <mxPoint x="1330.4657287525379" y="745.7157287525379" as="targetPoint" />
          </mxGeometry>
        </mxCell>
        <mxCell id="D9AQjK48RsLsbsZc_3wW-67" value="position==nChildren" style="text;html=1;align=center;verticalAlign=middle;resizable=0;points=[];autosize=1;strokeColor=none;fillColor=none;" parent="1" vertex="1">
          <mxGeometry x="1047.5" y="656" width="130" height="30" as="geometry" />
        </mxCell>
        <mxCell id="D9AQjK48RsLsbsZc_3wW-68" value="" style="endArrow=classic;html=1;rounded=0;exitX=1;exitY=0.5;exitDx=0;exitDy=0;entryX=0;entryY=0.5;entryDx=0;entryDy=0;" parent="1" source="D9AQjK48RsLsbsZc_3wW-62" edge="1">
          <mxGeometry width="50" height="50" relative="1" as="geometry">
            <mxPoint x="948.75" y="698" as="sourcePoint" />
            <mxPoint x="1318.75" y="774" as="targetPoint" />
          </mxGeometry>
        </mxCell>
        <mxCell id="D9AQjK48RsLsbsZc_3wW-70" value="&lt;span style=&quot;color: rgb(0, 0, 0); font-family: Helvetica; font-size: 12px; font-style: normal; font-variant-ligatures: normal; font-variant-caps: normal; font-weight: 400; letter-spacing: normal; orphans: 2; text-align: center; text-indent: 0px; text-transform: none; widows: 2; word-spacing: 0px; -webkit-text-stroke-width: 0px; white-space: nowrap; background-color: rgb(251, 251, 251); text-decoration-thickness: initial; text-decoration-style: initial; text-decoration-color: initial; display: inline !important; float: none;&quot;&gt;position!=nChildren&lt;/span&gt;" style="text;whiteSpace=wrap;html=1;" parent="1" vertex="1">
          <mxGeometry x="1313.75" y="666" width="150" height="40" as="geometry" />
        </mxCell>
        <mxCell id="D9AQjK48RsLsbsZc_3wW-71" value="12" style="ellipse;whiteSpace=wrap;html=1;aspect=fixed;" parent="1" vertex="1">
          <mxGeometry x="996.25" y="965" width="80" height="80" as="geometry" />
        </mxCell>
        <mxCell id="D9AQjK48RsLsbsZc_3wW-74" value="compact(children);" style="text;html=1;align=center;verticalAlign=middle;resizable=0;points=[];autosize=1;strokeColor=none;fillColor=none;" parent="1" vertex="1">
          <mxGeometry x="850" y="1010" width="120" height="30" as="geometry" />
        </mxCell>
        <mxCell id="D9AQjK48RsLsbsZc_3wW-76" value="11" style="ellipse;whiteSpace=wrap;html=1;aspect=fixed;" parent="1" vertex="1">
          <mxGeometry x="1313.75" y="738" width="80" height="80" as="geometry" />
        </mxCell>
        <mxCell id="D9AQjK48RsLsbsZc_3wW-77" value="" style="endArrow=classic;html=1;rounded=0;exitX=0;exitY=1;exitDx=0;exitDy=0;" parent="1" source="D9AQjK48RsLsbsZc_3wW-76" target="D9AQjK48RsLsbsZc_3wW-85" edge="1">
          <mxGeometry width="50" height="50" relative="1" as="geometry">
            <mxPoint x="1268.75" y="664" as="sourcePoint" />
            <mxPoint x="1340.4657287525379" y="755.7157287525379" as="targetPoint" />
          </mxGeometry>
        </mxCell>
        <mxCell id="D9AQjK48RsLsbsZc_3wW-79" value="children[position].delete(elem);" style="text;html=1;align=center;verticalAlign=middle;resizable=0;points=[];autosize=1;strokeColor=none;fillColor=none;" parent="1" vertex="1">
          <mxGeometry x="1383.75" y="748" width="190" height="30" as="geometry" />
        </mxCell>
        <mxCell id="D9AQjK48RsLsbsZc_3wW-88" value="~(IsLeaf)" style="text;html=1;align=center;verticalAlign=middle;resizable=0;points=[];autosize=1;strokeColor=none;fillColor=none;" parent="1" vertex="1">
          <mxGeometry x="926.25" y="192.5" width="70" height="30" as="geometry" />
        </mxCell>
        <mxCell id="D9AQjK48RsLsbsZc_3wW-90" value="" style="ellipse;whiteSpace=wrap;html=1;aspect=fixed;" parent="1" vertex="1">
          <mxGeometry x="651.25" y="262" width="87.5" height="87.5" as="geometry" />
        </mxCell>
        <mxCell id="D9AQjK48RsLsbsZc_3wW-91" value="4" style="ellipse;whiteSpace=wrap;html=1;aspect=fixed;" parent="1" vertex="1">
          <mxGeometry x="655" y="265.75" width="80" height="80" as="geometry" />
        </mxCell>
        <mxCell id="D9AQjK48RsLsbsZc_3wW-92" value="Return" style="text;html=1;align=center;verticalAlign=middle;resizable=0;points=[];autosize=1;strokeColor=none;fillColor=none;" parent="1" vertex="1">
          <mxGeometry x="656.25" y="349.5" width="60" height="30" as="geometry" />
        </mxCell>
        <mxCell id="D9AQjK48RsLsbsZc_3wW-93" value="" style="endArrow=classic;html=1;rounded=0;exitX=0;exitY=1;exitDx=0;exitDy=0;entryX=1;entryY=0;entryDx=0;entryDy=0;" parent="1" source="D9AQjK48RsLsbsZc_3wW-8" target="D9AQjK48RsLsbsZc_3wW-91" edge="1">
          <mxGeometry width="50" height="50" relative="1" as="geometry">
            <mxPoint x="1067.5" y="490" as="sourcePoint" />
            <mxPoint x="957.5" y="470" as="targetPoint" />
          </mxGeometry>
        </mxCell>
        <mxCell id="D9AQjK48RsLsbsZc_3wW-94" value="&lt;div&gt;&lt;span style=&quot;text-align: center; text-wrap: nowrap;&quot;&gt;IsLeaf&lt;/span&gt;&lt;br&gt;&lt;/div&gt;" style="text;whiteSpace=wrap;html=1;" parent="1" vertex="1">
          <mxGeometry x="727.5" y="195" width="80" height="40" as="geometry" />
        </mxCell>
        <mxCell id="WGV_xHKGCLS1mUc_mFmv-3" value="" style="endArrow=classic;html=1;rounded=0;exitX=0.5;exitY=1;exitDx=0;exitDy=0;" edge="1" parent="1" source="D9AQjK48RsLsbsZc_3wW-32" target="D9AQjK48RsLsbsZc_3wW-85">
          <mxGeometry width="50" height="50" relative="1" as="geometry">
            <mxPoint x="782" y="656" as="sourcePoint" />
            <mxPoint x="530" y="830" as="targetPoint" />
          </mxGeometry>
        </mxCell>
      </root>
    </mxGraphModel>
  </diagram>
</mxfile>
